<svg width="900" height="726" viewBox="0 0 900 726" fill="none" xmlns="http://www.w3.org/2000/svg">
<g clip-path="url(#clip0_4:8)">
<path opacity="0.1" d="M527.819 122.69C470.871 120.682 416.625 102.031 364.834 81.621C313.043 61.2113 261.745 38.5963 206.161 27.7844C170.411 20.8293 129.522 19.8472 100.722 39.2927C72.9968 58.0418 64.0393 90.317 59.2263 120.298C55.6011 142.85 53.4717 166.581 63.4058 187.696C70.2954 202.356 82.5349 214.677 90.9908 228.766C120.441 277.62 99.6314 337.867 67.7173 385.57C52.759 407.953 35.3809 429.318 23.8366 453.121C12.2922 476.923 6.94243 504.234 17.0437 528.536C27.0658 552.642 50.9376 570.713 76.7891 583.436C129.311 609.283 191.176 616.675 251.547 620.862C385.142 630.139 519.442 626.121 653.39 622.103C702.963 620.612 752.748 619.103 801.512 611.327C828.596 607.006 856.55 600.158 876.216 583.605C901.17 562.597 907.356 527.019 890.638 500.681C862.578 456.495 785.049 445.523 765.41 398.096C754.622 372 765.709 342.93 781.389 318.716C815.037 266.79 871.429 221.23 874.404 161.876C876.445 121.101 849.326 80.2818 807.408 60.9881C763.474 40.6944 702.532 43.2657 670.134 76.7373C636.751 111.227 578.096 124.458 527.819 122.69Z" fill="#6C63FF"/>
<path d="M383.154 616.488L81.9806 614.997L52.0551 543.777L157.872 535.983L139.429 457.897L348.723 430.372L148.308 359.679L166.011 355.411L488.276 408.757L470.528 530.617L445.161 597.587L383.154 616.488Z" fill="#6C63FF"/>
<path d="M86.6001 585.168C86.6001 585.168 105.078 582.168 116.165 595.417C116.165 595.417 108.034 601.917 90.542 592.917L86.6001 585.168Z" fill="#6C63FF"/>
<path d="M84.6643 584.873C84.6643 584.873 72.8736 599.596 78.6809 615.988C78.6809 615.988 88.2895 612.086 89.3366 592.212L84.6643 584.873Z" fill="#6C63FF"/>
<path d="M74.0702 560.669C74.0702 560.669 81.4614 546.911 111.026 566.169C111.026 566.169 107.084 575.418 94.0264 574.668C80.9687 573.918 77.5194 567.919 74.0702 560.669Z" fill="#6C63FF"/>
<path d="M72.1608 559.678C72.1608 559.678 56.8241 557.892 55.3371 593.515C55.3371 593.515 65.06 595.56 71.9673 584.293C78.8745 573.025 76.0412 566.704 72.1608 559.678Z" fill="#6C63FF"/>
<path d="M63.2298 531.26C63.2298 531.26 71.8529 507.011 103.142 524.26C103.142 524.26 95.9974 546.509 66.4327 539.509L63.2298 531.26Z" fill="#6C63FF"/>
<path d="M53.6213 495.011C53.6213 495.011 69.8819 470.513 98.7075 493.226C98.7075 493.226 88.6062 516.225 56.085 503.725L53.6213 495.011Z" fill="#6C63FF"/>
<path d="M50.1721 460.513C50.1721 460.513 69.1428 438.005 97.6868 460.513C97.6868 460.513 79.7016 480.262 50.1721 466.263V460.513Z" fill="#6C63FF"/>
<path d="M47.2156 427.006C47.2156 427.006 66.4327 403.507 93.7801 425.756C93.7801 425.756 72.0993 446.505 47.2156 432.505V427.006Z" fill="#6C63FF"/>
<path d="M48.9402 397.257C48.9402 397.257 69.178 367.009 94.7655 387.508C94.7655 387.508 73.0847 413.506 48.9402 403.007V397.257Z" fill="#6C63FF"/>
<path d="M53.6213 362.509C53.6213 362.509 75.0557 332.51 99.9394 355.509C99.9394 355.509 74.563 381.508 53.6213 368.009V362.509Z" fill="#6C63FF"/>
<path d="M60.7661 331.448C60.7661 331.448 86.1425 303.253 108.281 314.485C108.281 314.485 81.8398 344.429 59.6574 338.93L60.7661 331.448Z" fill="#6C63FF"/>
<path d="M69.6355 302.003C69.6355 302.003 98.9187 267.469 115.954 279.004C115.954 279.004 94.3784 305.789 67.559 308.467L69.6355 302.003Z" fill="#6C63FF"/>
<path d="M82.4381 267.853C82.4381 267.853 108.07 239.658 126.794 246.658C126.794 246.658 104.867 275.906 78.9977 276.656L82.4381 267.853Z" fill="#6C63FF"/>
<path d="M94.0264 235.908C94.0264 235.908 122.359 208.909 134.678 213.659C134.678 213.659 114.229 243.658 92.7946 241.908L94.0264 235.908Z" fill="#6C63FF"/>
<path d="M105.36 206.409C105.36 206.409 129.75 174.152 143.063 176.652C143.063 176.652 128.272 205.41 105.36 209.686V206.409Z" fill="#6C63FF"/>
<path d="M117.661 166.635C117.661 166.635 139.218 141.913 150.868 141.966C150.868 141.966 133.851 175 116.772 174.697L117.661 166.635Z" fill="#6C63FF"/>
<path d="M124.946 140.154L145.774 88.6564C145.774 88.6564 146.812 135.208 122.298 149.707L124.946 140.154Z" fill="#6C63FF"/>
<path d="M133.402 83.362C133.402 83.362 136.851 40.3552 134.634 36.8553C134.634 36.8553 149.522 72.6125 133.261 102.361L133.402 83.362Z" fill="#6C63FF"/>
<path d="M62.4203 530.688C62.4203 530.688 40.8275 517.109 26.8458 550.33C26.8458 550.33 46.0629 563.276 64.9632 539.161L62.4203 530.688Z" fill="#6C63FF"/>
<path d="M52.9262 493.628C52.9262 493.628 26.4411 481.369 13.5945 516.055C13.5945 516.055 34.0522 530.34 55.3371 502.395L52.9262 493.628Z" fill="#6C63FF"/>
<path d="M48.9402 462.575C48.9402 462.575 29.9695 440.068 1.42544 462.575C1.42544 462.575 19.4107 482.324 48.9402 468.325V462.575Z" fill="#6C63FF"/>
<path d="M46.5645 427.006C46.5645 427.006 27.3474 403.507 0 425.756C0 425.756 21.6808 446.505 46.5645 432.505V427.006Z" fill="#6C63FF"/>
<path d="M48.9402 398.114C48.9402 398.114 35.4601 364.232 6.15932 378.803C6.15932 378.803 21.9976 408.846 47.7435 403.739L48.9402 398.114Z" fill="#6C63FF"/>
<path d="M55.3195 362.339C55.3195 362.339 41.9186 327.868 12.2043 343.849C12.2043 343.849 30.4006 375.446 53.9996 367.66L55.3195 362.339Z" fill="#6C63FF"/>
<path d="M63.6258 331.618C63.6258 331.618 58.3464 293.825 33.7091 290.441C33.7091 290.441 38.9357 330.296 60.3085 338.43L63.6258 331.618Z" fill="#6C63FF"/>
<path d="M70.2602 302.074C70.2602 302.074 68.2013 256.541 47.8315 254.952C47.8315 254.952 48.5179 289.513 67.9637 308.521L70.2602 302.074Z" fill="#6C63FF"/>
<path d="M84.5499 266.576C84.5499 266.576 78.4785 228.712 59.0327 224.087C59.0327 224.087 61.4436 260.755 82.6229 275.87L84.5499 266.576Z" fill="#6C63FF"/>
<path d="M96.3318 236.221C96.3318 236.221 96.1294 196.776 84.2507 190.982C84.2507 190.982 76.8859 226.694 92.8914 241.256L96.3318 236.221Z" fill="#6C63FF"/>
<path d="M106.266 205.963C106.266 205.963 104.603 165.349 92.3018 159.626C92.3018 159.626 88.0959 191.767 104.427 208.624L106.266 205.963Z" fill="#6C63FF"/>
<path d="M119.376 169.876C119.376 169.876 119.306 136.841 110.525 129.092C110.525 129.092 101.796 165.278 114.792 176.518L119.376 169.876Z" fill="#6C63FF"/>
<path d="M123.917 138.529L115.373 83.5495C115.373 83.5495 103.767 128.601 124.321 148.457L123.917 138.529Z" fill="#6C63FF"/>
<path d="M125.58 83.8798C125.58 83.8798 103.653 46.9173 104.101 42.8104C104.101 42.8104 106.433 81.5496 134.018 100.843L125.58 83.8798Z" fill="#6C63FF"/>
<path d="M128.149 72.9607C128.149 72.9607 107.454 20.4633 98.0916 16.2135C98.0916 16.2135 127.656 31.4628 129.874 71.4608L128.149 72.9607Z" fill="#6C63FF"/>
<path d="M116.666 175.009L115.25 174.572C132.716 116.78 137.071 79.9336 127.524 70.693L128.536 69.6037C138.664 79.3533 134.555 115.798 116.666 175.009Z" fill="#444053"/>
<path d="M68.5708 310.324L66.4767 309.565C68.3333 304.271 70.3306 298.896 72.4248 293.602C90.6564 247.497 106.178 204.606 116.13 171.679L117.951 170.786C107.982 203.776 92.733 248.309 74.4838 294.477C72.3984 299.673 70.4098 305.021 68.5708 310.324Z" fill="#444053"/>
<path d="M112.636 628.416C112.355 628.103 84.0483 595.756 64.3121 540.536C52.7479 508.207 46.312 474.22 45.2446 439.844C43.8896 396.873 52.7766 348.894 67.9989 305.306L69.6531 307.271C35.4777 405.096 49.0546 488.922 67.0662 539.402C86.5913 594.123 114.581 626.112 114.854 626.433L112.636 628.416Z" fill="#444053"/>
<path d="M554.981 559.74C554.981 559.74 535.034 584.444 550.872 621.791L391.61 691.877L376.326 695.127L369.286 663.878L373.994 624.443V602.89L554.981 559.74Z" fill="#D5D6DB"/>
<path d="M52.0551 543.777L272.488 503.002L564.572 550.214L383.154 616.488L52.0551 543.777Z" fill="#6C63FF"/>
<path d="M52.0551 543.777L272.488 503.002L564.572 550.214L383.154 616.488L52.0551 543.777Z" fill="#6C63FF"/>
<path d="M52.0551 543.768C52.0551 543.768 31.4389 583.4 55.1963 620.005L382.08 691.877C382.08 691.877 361.79 660.307 383.127 616.488L52.0551 543.768Z" fill="#6C63FF"/>
<path opacity="0.1" d="M52.0551 543.768C52.0551 543.768 31.4389 583.4 55.1963 620.005L382.08 691.877C382.08 691.877 361.79 660.307 383.127 616.488L52.0551 543.768Z" fill="black"/>
<path opacity="0.1" d="M61.7956 557.508C61.7956 557.508 50.0137 586.507 61.7956 605.274V557.508Z" fill="black"/>
<path d="M382.08 691.877L564.572 612.863C564.572 612.863 574.779 615.095 568.18 622.684C561.58 630.273 385.6 699.466 385.6 699.466L55.1963 620.005L382.08 691.877Z" fill="#6C63FF"/>
<path opacity="0.1" d="M382.08 691.877L564.572 612.863C564.572 612.863 574.779 615.095 568.18 622.684C561.58 630.273 385.6 699.466 385.6 699.466L55.1963 620.005L382.08 691.877Z" fill="black"/>
<path opacity="0.1" d="M367.122 624.469C367.122 624.469 349.524 645.897 367.122 678.038V624.469Z" fill="black"/>
<path opacity="0.1" d="M452.32 624.107L373.385 650.828L373.664 651.675L452.599 624.954L452.32 624.107Z" fill="black"/>
<path opacity="0.1" d="M468.131 621.448L373.36 658.014L373.673 658.849L468.444 622.282L468.131 621.448Z" fill="black"/>
<path opacity="0.1" d="M482.651 621.32L373.889 666.491L374.222 667.317L482.984 622.146L482.651 621.32Z" fill="black"/>
<path opacity="0.1" d="M498.44 617.452L375.159 673.958L375.521 674.772L498.802 618.265L498.44 617.452Z" fill="black"/>
<path opacity="0.1" d="M511.705 617.47L376.134 677.597L376.487 678.415L512.058 618.288L511.705 617.47Z" fill="black"/>
<path opacity="0.1" d="M540.72 612.47L378.179 683.703L378.528 684.523L541.069 613.29L540.72 612.47Z" fill="black"/>
<path opacity="0.3" d="M133.948 548.134L288.811 515.1L383.154 533.402L256.254 574.918L133.948 548.134Z" fill="white"/>
<path d="M564.572 550.214C564.572 550.214 572.579 553.491 567.881 558.553C563.182 563.615 383.127 616.488 383.127 616.488L564.572 550.214Z" fill="#6C63FF"/>
<path d="M642.347 473.87C642.347 473.87 622.408 498.565 638.246 535.92L478.984 606.006L463.7 609.274L456.661 578.025L461.439 538.599V517.019L642.347 473.87Z" fill="#D5D6DB"/>
<path d="M139.429 457.897L359.854 417.131L651.947 464.343L470.528 530.617L139.429 457.897Z" fill="#3A3768"/>
<path d="M139.394 457.897C139.394 457.897 118.769 497.529 142.527 534.134L469.411 606.006C469.411 606.006 449.129 574.409 470.493 530.608L139.394 457.897Z" fill="#3A3768"/>
<path opacity="0.1" d="M139.394 457.897C139.394 457.897 118.769 497.529 142.527 534.134L469.411 606.006C469.411 606.006 449.129 574.409 470.493 530.608L367.122 507.904L139.394 457.897Z" fill="black"/>
<path opacity="0.1" d="M149.161 471.638C149.161 471.638 137.388 500.627 149.161 519.403V471.638Z" fill="black"/>
<path d="M469.446 606.006L651.947 526.992C651.947 526.992 662.145 529.224 655.545 536.813C648.946 544.402 472.965 613.595 472.965 613.595L142.562 534.134L469.446 606.006Z" fill="#3A3768"/>
<path opacity="0.1" d="M469.446 606.006L651.947 526.992C651.947 526.992 662.145 529.224 655.545 536.813C648.946 544.402 472.965 613.595 472.965 613.595L142.562 534.134L469.446 606.006Z" fill="black"/>
<path opacity="0.1" d="M454.487 538.599C454.487 538.599 436.889 560.026 454.487 592.167V538.599Z" fill="black"/>
<path opacity="0.1" d="M539.693 538.246L460.758 564.967L461.036 565.814L539.971 539.093L539.693 538.246Z" fill="black"/>
<path opacity="0.1" d="M555.514 535.582L460.744 572.149L461.056 572.983L555.827 536.417L555.514 535.582Z" fill="black"/>
<path opacity="0.1" d="M570.021 535.442L461.26 580.613L461.593 581.439L570.355 536.268L570.021 535.442Z" fill="black"/>
<path opacity="0.1" d="M585.821 531.575L462.539 588.082L462.902 588.896L586.183 532.389L585.821 531.575Z" fill="black"/>
<path opacity="0.1" d="M599.073 531.583L463.503 591.71L463.855 592.528L599.426 532.401L599.073 531.583Z" fill="black"/>
<path opacity="0.1" d="M628.095 526.583L465.554 597.816L465.903 598.636L628.444 527.402L628.095 526.583Z" fill="black"/>
<path opacity="0.45" d="M221.322 462.263L376.185 429.229L470.528 447.532L343.629 489.047L221.322 462.263Z" fill="white"/>
<path d="M651.947 464.343C651.947 464.343 659.945 467.62 655.255 472.673C650.565 477.727 470.528 530.608 470.528 530.608L651.947 464.343Z" fill="#3A3768"/>
<path d="M650.618 375.633C650.618 375.633 630.67 419.979 646.509 457.326L487.246 507.77L471.998 511.046L464.958 479.798L469.666 440.362V418.783L650.618 375.633Z" fill="#D5D6DB"/>
<path d="M147.727 359.67L368.16 318.895L660.253 366.107L478.826 432.381L147.727 359.67Z" fill="#6C63FF"/>
<path d="M147.727 359.661C147.727 359.661 127.076 399.293 150.833 435.898L477.717 507.77C477.717 507.77 457.426 476.173 478.79 432.381L147.727 359.661Z" fill="#6C63FF"/>
<path opacity="0.1" d="M147.727 359.661C147.727 359.661 127.076 399.293 150.833 435.898L477.717 507.77C477.717 507.77 457.426 476.173 478.79 432.381L147.727 359.661Z" fill="black"/>
<path opacity="0.1" d="M157.467 373.401C157.467 373.401 145.686 402.4 157.467 421.167V373.401Z" fill="black"/>
<path d="M477.752 507.77L660.244 448.398C660.244 448.398 670.451 450.63 663.852 458.219C657.252 465.807 481.272 515.359 481.272 515.359L150.868 435.898L477.752 507.77Z" fill="#6C63FF"/>
<path opacity="0.1" d="M477.752 507.77L660.244 448.398C660.244 448.398 670.451 450.63 663.852 458.219C657.252 465.807 481.272 515.359 481.272 515.359L150.868 435.898L477.752 507.77Z" fill="black"/>
<path opacity="0.1" d="M462.794 440.362C462.794 440.362 445.196 461.79 462.794 493.931V440.362Z" fill="black"/>
<path opacity="0.1" d="M548.002 440.008L469.066 466.729L469.345 467.576L548.28 440.855L548.002 440.008Z" fill="black"/>
<path opacity="0.1" d="M563.817 437.349L469.046 473.915L469.359 474.75L564.13 438.183L563.817 437.349Z" fill="black"/>
<path opacity="0.1" d="M578.316 437.213L469.554 482.384L469.888 483.21L578.649 438.039L578.316 437.213Z" fill="black"/>
<path opacity="0.1" d="M594.128 433.338L470.846 489.845L471.208 490.659L594.49 434.152L594.128 433.338Z" fill="black"/>
<path opacity="0.1" d="M607.385 433.354L471.814 493.481L472.166 494.299L607.737 434.172L607.385 433.354Z" fill="black"/>
<path opacity="0.1" d="M636.403 428.36L473.862 499.593L474.211 500.413L636.752 429.18L636.403 428.36Z" fill="black"/>
<path opacity="0.3" d="M229.619 364.027L384.482 330.993L478.826 349.295L351.926 390.811L229.619 364.027Z" fill="white"/>
<path d="M660.244 366.107C660.244 366.107 668.251 369.384 663.552 374.446C658.854 379.508 478.826 432.381 478.826 432.381L660.244 366.107Z" fill="#6C63FF"/>
<path d="M273.139 95.0846C273.139 95.0846 239.703 93.04 243.61 116.842C243.61 116.842 242.827 121.048 246.584 122.958C246.584 122.958 246.646 121.173 250.016 121.789C251.218 121.998 252.442 122.058 253.658 121.967C255.299 121.853 256.858 121.202 258.102 120.11C258.102 120.11 267.508 116.164 271.169 100.558C271.169 100.558 273.879 97.1559 273.808 96.281L268.142 98.7273C268.142 98.7273 270.069 102.861 268.555 106.298C268.555 106.298 268.37 98.8791 267.279 99.0487C267.059 99.0487 264.349 100.486 264.349 100.486C264.349 100.486 267.666 107.691 265.159 112.923C265.159 112.923 266.109 104.048 263.311 101.004L259.334 103.361C259.334 103.361 263.214 110.798 260.583 116.869C260.583 116.869 261.261 107.557 258.498 103.932L254.89 106.789C254.89 106.789 258.542 114.119 256.316 119.155C256.316 119.155 256.025 108.316 254.116 107.495C254.116 107.495 250.957 110.316 250.482 111.477C250.482 111.477 252.981 116.834 251.423 119.61C251.423 119.61 250.482 112.387 249.664 112.352C249.664 112.352 246.522 117.137 246.197 120.387C246.349 117.357 247.28 114.421 248.898 111.869C247.088 112.217 245.417 113.095 244.094 114.396C244.094 114.396 244.578 111.012 249.681 110.718C249.681 110.718 252.277 107.084 252.972 106.87C252.972 106.87 247.895 106.432 244.824 107.816C244.824 107.816 247.534 104.629 253.896 106.03L257.416 103.084C257.416 103.084 250.746 102.191 247.913 103.182C247.913 103.182 251.177 100.361 258.375 102.415L262.255 100.066C262.255 100.066 256.562 98.8255 253.174 99.2719C253.174 99.2719 256.747 97.3166 263.39 99.4326L266.153 98.1737C266.153 98.1737 261.991 97.3434 260.768 97.2095C259.545 97.0756 259.483 96.7363 259.483 96.7363C262.125 96.2961 264.835 96.6051 267.315 97.6291C267.315 97.6291 273.254 95.4596 273.139 95.0846Z" fill="#6C63FF"/>
<path opacity="0.1" d="M743.536 192.919C743.536 192.919 710.099 190.875 714.006 214.677C714.006 214.677 713.223 218.882 716.98 220.793C716.98 220.793 717.042 219.007 720.412 219.623C721.615 219.828 722.838 219.888 724.055 219.802C725.68 219.68 727.223 219.029 728.454 217.945C728.454 217.945 737.869 213.998 741.521 198.392C741.521 198.392 744.231 194.99 744.16 194.115L738.511 196.562C738.511 196.562 740.438 200.695 738.925 204.133C738.925 204.133 738.74 196.714 737.658 196.883C737.438 196.883 734.719 198.321 734.719 198.321C734.719 198.321 738.036 205.526 735.537 210.758C735.537 210.758 736.488 201.883 733.681 198.838L729.704 201.195C729.704 201.195 733.584 208.633 730.953 214.704C730.953 214.704 731.631 205.392 728.868 201.767L725.269 204.624C725.269 204.624 728.912 211.954 726.685 216.989C726.685 216.989 726.395 206.151 724.486 205.329C724.486 205.329 721.336 208.15 720.852 209.311C720.852 209.311 723.351 214.668 721.802 217.445C721.802 217.445 720.852 210.222 720.042 210.186C720.042 210.186 716.901 214.972 716.575 218.221C716.728 215.19 717.662 212.253 719.285 209.704C717.473 210.052 715.8 210.931 714.472 212.231C714.472 212.231 714.965 208.847 720.06 208.552C720.06 208.552 722.655 204.918 723.351 204.695C723.351 204.695 718.282 204.267 715.203 205.651C715.203 205.651 717.913 202.463 724.275 203.865L727.794 200.919C727.794 200.919 721.116 200.026 718.291 201.017C718.291 201.017 721.547 198.196 728.753 200.249L732.625 197.901C732.625 197.901 726.932 196.66 723.544 197.106C723.544 197.106 727.117 195.151 733.76 197.267L736.532 196.008C736.532 196.008 732.361 195.178 731.138 195.044C729.915 194.91 729.853 194.571 729.853 194.571C732.495 194.125 735.206 194.434 737.684 195.464C737.684 195.464 743.641 193.294 743.536 192.919Z" fill="#6C63FF"/>
<path opacity="0.1" d="M329.453 242.131C329.453 242.131 314.882 211.481 296.334 226.587C296.334 226.587 292.33 227.944 292.524 232.203C292.524 232.203 294.064 231.39 295.163 234.676C295.574 235.837 296.118 236.946 296.782 237.979C297.683 239.38 299.008 240.446 300.557 241.015C300.557 241.015 308.538 247.425 323.751 243.051C323.751 243.051 328.001 243.792 328.697 243.274L323.839 239.461C323.839 239.461 321.2 243.185 317.522 243.515C317.522 243.515 323.822 239.738 323.144 238.863C323.004 238.685 320.505 236.962 320.505 236.962C320.505 236.962 315.92 243.417 310.201 243.747C310.201 243.747 318.296 240.265 319.546 236.292L315.586 233.917C315.586 233.917 311.072 240.988 304.57 241.613C304.57 241.613 312.911 237.676 314.68 233.462L310.474 231.676C310.474 231.676 305.942 238.479 300.522 238.97C300.522 238.97 309.708 233.426 309.479 231.328C309.479 231.328 305.511 229.917 304.279 230.051C304.279 230.051 300.918 234.863 297.75 234.863C297.75 234.863 303.496 230.498 303.144 229.792C303.144 229.792 297.495 229.346 294.521 230.685C297.201 229.334 300.183 228.718 303.171 228.899C301.985 227.466 300.414 226.414 298.648 225.873C298.648 225.873 301.798 224.659 304.534 229.024C304.534 229.024 308.934 229.551 309.453 230.06C309.453 230.06 307.35 225.364 304.666 223.319C304.666 223.319 308.732 224.15 310.588 230.462L314.856 232.176C314.856 232.176 312.401 225.819 310.139 223.81C310.139 223.81 314.152 225.319 315.903 232.739L319.81 235.024C319.81 235.024 318.111 229.373 316.07 226.596C316.07 226.596 319.493 228.81 320.909 235.721L323.347 237.56C323.347 237.56 322.027 233.462 321.587 232.319C321.147 231.176 321.367 230.944 321.367 230.944C323.041 233.064 324.101 235.614 324.429 238.31C324.429 238.31 329.137 242.399 329.453 242.131Z" fill="#6C63FF"/>
<path opacity="0.1" d="M667.142 149.618C667.142 149.618 652.58 118.967 634.023 134.074C634.023 134.074 630.028 135.431 630.213 139.69C630.213 139.69 631.762 138.886 632.853 142.163C633.263 143.329 633.809 144.441 634.48 145.475C635.377 146.873 636.7 147.936 638.246 148.502C638.246 148.502 646.236 154.912 661.441 150.546C661.441 150.546 665.691 151.278 666.395 150.76L661.564 146.939C661.564 146.939 658.924 150.671 655.255 151.002C655.255 151.002 661.546 147.216 660.869 146.341C660.728 146.162 658.229 144.439 658.229 144.439C658.229 144.439 653.654 150.894 647.925 151.225C647.925 151.225 656.029 147.743 657.279 143.779L653.258 141.422C653.258 141.422 648.752 148.484 642.241 149.118C642.241 149.118 650.583 145.171 652.36 140.957L648.145 139.172C648.145 139.172 643.614 145.984 638.202 146.466C638.202 146.466 647.38 140.922 647.151 138.832C647.151 138.832 643.191 137.413 641.96 137.556C641.96 137.556 638.598 142.359 635.422 142.359C635.422 142.359 641.176 137.993 640.825 137.288C640.825 137.288 635.176 136.841 632.193 138.181C634.872 136.829 637.855 136.213 640.842 136.395C639.661 134.96 638.092 133.908 636.328 133.368C636.328 133.368 639.478 132.154 642.215 136.52C642.215 136.52 646.614 137.056 647.133 137.565C647.133 137.565 645.03 132.86 642.338 130.815C642.338 130.815 646.403 131.654 648.26 138.002L652.536 139.716C652.536 139.716 650.081 133.351 647.82 131.342C647.82 131.342 651.832 132.851 653.574 140.27L657.49 142.555C657.49 142.555 655.783 136.913 653.741 134.127C653.741 134.127 657.173 136.342 658.581 143.252L661.018 145.091C661.018 145.091 659.707 140.993 659.259 139.85C658.81 138.707 659.039 138.484 659.039 138.484C660.708 140.606 661.764 143.156 662.092 145.85C662.092 145.85 666.87 149.903 667.142 149.618Z" fill="#6C63FF"/>
<path opacity="0.1" d="M713.681 301.226C713.681 301.226 699.118 270.567 680.535 285.673C680.535 285.673 676.54 287.031 676.725 291.289C676.725 291.289 678.273 290.486 679.364 293.762C679.772 294.928 680.315 296.04 680.983 297.075C681.88 298.473 683.203 299.535 684.749 300.101C684.749 300.101 692.739 306.521 707.952 302.146C707.952 302.146 712.194 302.887 712.897 302.36L708.04 298.548C708.04 298.548 705.401 302.28 701.723 302.61C701.723 302.61 708.014 298.825 707.336 297.95C707.196 297.771 704.697 296.048 704.697 296.048C704.697 296.048 700.121 302.503 694.393 302.842C694.393 302.842 702.497 299.351 703.746 295.387L699.778 293.012C699.778 293.012 695.273 300.083 688.762 300.708C688.762 300.708 697.103 296.762 698.881 292.548L694.666 290.762C694.666 290.762 690.134 297.566 684.723 298.057C684.723 298.057 693.909 292.512 693.68 290.414C693.68 290.414 689.712 288.995 688.48 289.138C688.48 289.138 685.119 293.941 681.942 293.941C681.942 293.941 687.697 289.575 687.345 288.87C687.345 288.87 681.696 288.423 678.713 289.763C681.396 288.411 684.381 287.796 687.371 287.977C686.189 286.54 684.616 285.487 682.849 284.95C682.849 284.95 685.999 283.727 688.735 288.102C688.735 288.102 693.135 288.629 693.654 289.138C693.654 289.138 691.551 284.441 688.867 282.388C688.867 282.388 692.932 283.227 694.789 289.575L699.057 291.289C699.057 291.289 696.602 284.923 694.34 282.924C694.34 282.924 698.353 284.424 700.095 291.852L704.01 294.128C704.01 294.128 702.303 288.486 700.262 285.7C700.262 285.7 703.694 287.914 705.11 294.834L707.548 296.619C707.548 296.619 706.228 292.521 705.788 291.379C705.348 290.236 705.568 290.013 705.568 290.013C707.241 292.132 708.298 294.683 708.621 297.378C708.621 297.378 713.408 301.494 713.681 301.226Z" fill="#6C63FF"/>
<path opacity="0.1" d="M177.696 700.108C188.869 700.108 197.925 699.081 197.925 697.814C197.925 696.547 188.869 695.519 177.696 695.519C166.524 695.519 157.467 696.547 157.467 697.814C157.467 699.081 166.524 700.108 177.696 700.108Z" fill="#6C63FF"/>
<path opacity="0.1" d="M45.0862 661.11C56.2584 661.11 65.3152 660.083 65.3152 658.816C65.3152 657.549 56.2584 656.521 45.0862 656.521C33.9141 656.521 24.8573 657.549 24.8573 658.816C24.8573 660.083 33.9141 661.11 45.0862 661.11Z" fill="#6C63FF"/>
<path opacity="0.1" d="M278.78 726.009C289.952 726.009 299.009 724.982 299.009 723.714C299.009 722.447 289.952 721.42 278.78 721.42C267.607 721.42 258.551 722.447 258.551 723.714C258.551 724.982 267.607 726.009 278.78 726.009Z" fill="#6C63FF"/>
<path opacity="0.1" d="M796.779 669.592C807.951 669.592 817.008 668.565 817.008 667.298C817.008 666.03 807.951 665.003 796.779 665.003C785.606 665.003 776.55 666.03 776.55 667.298C776.55 668.565 785.606 669.592 796.779 669.592Z" fill="#6C63FF"/>
<path opacity="0.1" d="M628.444 658.459C639.616 658.459 648.673 657.431 648.673 656.164C648.673 654.897 639.616 653.87 628.444 653.87C617.272 653.87 608.215 654.897 608.215 656.164C608.215 657.431 617.272 658.459 628.444 658.459Z" fill="#6C63FF"/>
<path opacity="0.1" d="M519.548 712.76C532.761 712.76 543.472 710.893 543.472 708.59C543.472 706.287 532.761 704.421 519.548 704.421C506.334 704.421 495.623 706.287 495.623 708.59C495.623 710.893 506.334 712.76 519.548 712.76Z" fill="#6C63FF"/>
<path d="M530.221 666.682C530.221 666.682 496.908 684.145 514.119 704.715C514.119 704.715 515.738 709.179 520.419 708.867C520.419 708.867 519.486 707.135 523.058 705.751C524.33 705.252 525.538 704.602 526.657 703.814C528.17 702.752 529.301 701.22 529.878 699.448C529.878 699.448 536.688 690.198 531.409 673.083C531.409 673.083 532.095 668.244 531.497 667.458L527.449 673.092C527.449 673.092 531.629 675.94 532.113 680.127C532.113 680.127 527.713 673.101 526.833 673.878C526.64 674.038 524.827 676.958 524.827 676.958C524.827 676.958 532.077 681.949 532.614 688.43C532.614 688.43 528.531 679.351 524.123 678.056L521.598 682.627C521.598 682.627 529.517 687.52 530.397 694.877C530.397 694.877 525.795 685.547 521.096 683.663L519.24 688.493C519.24 688.493 526.877 693.421 527.581 699.546C527.581 699.546 521.193 689.305 518.896 689.627C518.896 689.627 517.453 694.162 517.647 695.564C517.647 695.564 523.041 699.225 523.138 702.823C523.138 702.823 518.157 696.439 517.392 696.859C517.392 696.859 517.075 703.278 518.606 706.617C518.606 706.617 515.966 701.849 516.397 696.859C514.854 698.243 513.744 700.056 513.203 702.073C513.203 702.073 511.769 698.546 516.494 695.296C516.494 695.296 516.943 690.305 517.489 689.689C517.489 689.689 512.376 692.225 510.203 695.332C510.203 695.332 511.004 690.698 517.937 688.395L519.697 683.502C519.697 683.502 512.763 686.484 510.625 689.109C510.625 689.109 512.165 684.511 520.243 682.306L522.636 677.842C522.636 677.842 516.477 679.949 513.467 682.306C513.467 682.306 515.799 678.351 523.375 676.529L525.32 673.717C525.32 673.717 520.85 675.333 519.6 675.913C518.351 676.494 518.104 676.208 518.104 676.208C520.388 674.248 523.163 672.968 526.12 672.512C526.12 672.512 530.529 666.985 530.221 666.682Z" fill="#6C63FF"/>
<path d="M629.095 336.849C623.341 320.984 591.664 319.493 577.92 323.538C568.153 326.421 547.564 329.671 536.565 331.305L535.852 330.618C537.278 330.189 537.313 329.136 537.137 327.573C537.034 325.514 537.064 323.45 537.225 321.395C543.965 323.52 549.966 318.493 549.966 318.493C557.885 314.922 555.756 299.637 557.269 295.459C558.404 292.334 559.627 273.924 560.173 264.746H560.287L560.349 261.666C560.428 260.335 560.463 259.559 560.463 259.559C560.463 259.559 561.237 237.113 562.751 232.569C564.159 228.391 565.302 207.338 565.478 203.999C565.478 203.713 565.478 203.561 565.478 203.561L565.364 201.615C565.443 200.195 565.478 198.615 565.47 196.955C565.47 189.321 564.687 179.705 564.59 178.152C564.59 177.929 564.59 177.661 564.59 177.339C564.651 174.081 564.247 157.76 550.564 151.591C545.522 149.305 539.46 146.582 533.591 143.93C532.077 130.672 528.619 117.485 528.919 104.129C528.919 102.12 529.094 100.111 529.288 98.1112C529.288 98.6916 529.227 99.2808 529.218 99.8969C529.218 101.191 529.218 102.495 529.218 103.79C529.737 87.085 535.958 70.2912 535.377 53.9438C535.324 55.5419 535.21 57.149 535.06 58.756C535.364 53.2267 534.794 47.6836 533.371 42.3372C532.843 40.4534 532.13 38.507 530.608 37.2482C529.169 36.2343 527.519 35.5713 525.786 35.3108C521.622 34.2293 517.392 33.43 513.124 32.918C512.476 30.9036 511.513 29.0076 510.273 27.3022C501.351 14.8743 488.135 3.19626 472.508 0.517817C464.668 -0.821403 455.649 0.294613 450.317 5.98183C449.76 6.48144 449.237 7.01833 448.751 7.5889C445.882 11.0619 444.65 15.6242 441.711 19.0883C441.518 19.3205 441.298 19.5347 441.087 19.7579C435.332 24.9809 426.366 26.0701 419.969 30.7574C418.842 31.5988 417.785 32.5335 416.81 33.5519C414.233 36.1437 411.921 38.9945 409.912 42.0604C407.034 46.1674 404.078 50.4439 403.163 55.3455C401.324 65.1664 407.914 74.4785 409.137 84.3619C411.865 106.477 387.747 126.101 392.314 147.921C393.532 153.282 396.223 158.182 400.074 162.055C390.668 170.697 382.661 179.08 382.661 179.08V179.58H381.174L381.324 181.366H381.174L381.992 191.053L381.174 205.16C381.174 205.16 381.174 205.311 381.174 205.597V205.668V206.052C381.174 206.052 381.174 206.204 381.174 206.49H381.227C381.5 211.659 382.582 230.248 383.867 234.167C385.38 238.711 386.145 261.157 386.145 261.157C386.145 261.157 387.817 292.878 389.348 297.075C390.879 301.271 388.706 316.511 396.651 320.109C398.976 321.918 401.728 323.076 404.632 323.466C404.227 326.805 404.483 329.225 405.794 329.984C406.355 330.318 406.991 330.503 407.641 330.519C407.102 331.331 406.623 332.181 406.207 333.064C403.053 332.73 399.955 331.989 396.986 330.859C388.451 327.287 360.127 319.252 351.9 324.904C343.673 330.555 323.875 335.68 333.017 358.429C342.159 381.178 346.418 381.749 346.418 381.749C349.232 383.822 351.701 386.339 353.73 389.204C356.475 393.391 382.054 402.971 388.451 402.971C391.17 402.929 393.889 403.066 396.59 403.382C396.59 403.382 389.647 409.56 390.571 413.149C391.495 416.738 388.46 445.469 388.46 445.469C388.46 445.469 395.499 452.665 398.508 443.228L398.614 443.371C399.177 444.148 402.221 447.657 407.949 443.228C410.294 441.424 412.784 439.823 415.393 438.443L443.128 434.461C446.019 434.277 448.919 434.257 451.813 434.398C456.212 434.764 460.532 432.122 463.251 430.077C468.997 432.291 475.456 434.711 478.526 435.595C484.756 437.38 513.388 445.175 520.084 442.737C521.476 442.176 522.714 441.281 523.692 440.13L530.08 440.335L527.088 440.943C527.088 440.943 532.913 441.041 540.832 441.148L540.498 441.344L550.432 441.255C564.968 441.389 581.299 441.434 583.446 440.943C586.807 440.184 604.273 440.719 609.421 440.943H610.855C610.855 440.943 630.046 437.059 622.127 417.301C616.038 402.123 597.322 397.713 589.016 396.498C591.356 396.025 593.371 395.659 594.709 395.445C600.507 394.552 611.77 389.195 612.685 387.365C613.6 385.535 623.042 380.222 625.479 377.196C627.916 374.169 634.876 352.715 629.095 336.849ZM470.141 381.249L469.199 381.562L468.566 381.776L467.352 382.99C466.384 382.329 465.346 381.633 464.263 380.919C466.173 381.035 468.135 381.151 470.141 381.249Z" fill="url(#paint0_linear_4:8)"/>
<path d="M526.244 287.111C526.244 287.111 539.706 322.823 547.361 319.252C555.016 315.681 552.94 300.503 554.4 296.343C555.861 292.182 557.48 260.63 557.48 260.63C557.48 260.63 558.219 238.31 559.68 233.792C561.035 229.64 562.135 208.704 562.32 205.41C562.32 205.124 562.32 204.972 562.32 204.972L560.868 179.08L552.649 177L533.591 184.143L530.951 199.437L529.922 205.41L529.482 207.954L526.244 287.111Z" fill="#BE6F72"/>
<path opacity="0.1" d="M530.678 281.129C530.678 281.129 543.525 291.798 547.396 292.736C551.268 293.673 553.644 301.994 553.644 301.994" fill="black"/>
<path d="M420.963 288.673C420.963 288.673 407.501 324.386 399.846 320.815C392.19 317.243 394.267 302.065 392.806 297.905C391.346 293.744 389.727 262.192 389.727 262.192C389.727 262.192 388.988 239.872 387.527 235.354C386.172 231.203 385.072 210.266 384.887 206.972C384.887 206.686 384.887 206.534 384.887 206.534L386.348 180.643L394.566 178.563L413.625 185.705L416.264 200.999L417.294 206.972L417.734 209.516L420.963 288.673Z" fill="#BE6F72"/>
<path d="M508.628 97.5577H478.579V145.082H508.628V97.5577Z" fill="#3E373A"/>
<path opacity="0.1" d="M508.628 97.5577H478.579V145.082H508.628V97.5577Z" fill="black"/>
<path d="M415.684 324.243C415.684 324.243 405.415 335.698 409.225 337.778C413.035 339.858 437.681 378.847 437.681 378.847C437.681 378.847 518.632 388.963 533.899 373.785C549.165 358.607 548.857 331.493 548.857 331.493C548.857 331.493 536.591 334.171 535.254 332.716C533.916 331.26 526.569 324.243 526.569 324.243C526.569 324.243 422.723 317.85 415.684 324.243Z" fill="#4B4B5B"/>
<path opacity="0.02" d="M415.684 324.243C415.684 324.243 405.415 335.698 409.225 337.778C413.035 339.858 437.681 378.847 437.681 378.847C437.681 378.847 518.632 388.963 533.899 373.785C549.165 358.607 548.857 331.493 548.857 331.493C548.857 331.493 536.591 334.171 535.254 332.716C533.916 331.26 526.569 324.243 526.569 324.243C526.569 324.243 422.723 317.85 415.684 324.243Z" fill="black"/>
<path d="M561.413 179.455L535.016 200.883L527.036 201.472L524.105 201.687L474.892 205.347L423.858 201.562L416.265 200.999L406.586 200.285L386.348 180.643C386.348 180.643 400.673 165.072 413.22 154.564C418.165 150.412 422.837 147.055 426.243 145.734L426.823 145.529C428.965 144.681 430.877 143.328 432.402 141.582C442.31 131.217 451.469 105.638 451.469 105.638C451.469 105.638 495.174 82.7281 489.895 112.78C484.615 142.832 509.543 135.404 509.543 135.404L517.761 139.207L521.008 140.716L529.288 144.564L547.968 153.26C562.628 160.108 561.413 179.455 561.413 179.455Z" fill="#BE6F72"/>
<path opacity="0.1" d="M472.842 130.11C494.55 130.11 512.148 112.254 512.148 90.2277C512.148 68.2015 494.55 50.3457 472.842 50.3457C451.135 50.3457 433.537 68.2015 433.537 90.2277C433.537 112.254 451.135 130.11 472.842 130.11Z" fill="black"/>
<path opacity="0.1" d="M561.475 207.865H384.887C384.887 207.579 384.887 207.427 384.887 207.427L386.348 181.536C386.348 181.536 400.673 165.965 413.22 155.457L524.088 150.993L529.244 145.475L547.924 154.171C562.592 161.01 561.413 180.357 561.413 180.357C561.413 180.357 563.419 202.776 561.475 207.865Z" fill="black"/>
<path d="M561.475 206.972H384.887C384.887 206.686 384.887 206.535 384.887 206.535L386.348 180.643C386.348 180.643 400.673 165.072 413.22 154.564L524.088 150.1L529.244 144.582L547.924 153.278C562.592 160.117 561.413 179.464 561.413 179.464C561.413 179.464 563.419 201.883 561.475 206.972Z" fill="#E7C7CA"/>
<path opacity="0.1" d="M444.536 134.368C444.536 134.368 472.394 170.384 509.499 133.627C546.605 96.8702 513.608 215.614 513.608 215.614L433.537 225.257L444.536 134.368Z" fill="black"/>
<path d="M444.536 136.154C444.536 136.154 472.394 172.17 509.499 135.413C546.605 98.6559 513.608 217.4 513.608 217.4L433.537 227.042L444.536 136.154Z" fill="#E7C7CA"/>
<path opacity="0.1" d="M520.964 142.475L523.912 188.089L527.071 203.267L529.482 214.873C529.482 214.873 535.641 304.155 533.881 308.619C532.121 313.083 534.761 316.654 535.131 319.029C535.5 321.404 534.761 327.368 535.051 330.046C535.342 332.725 535.051 333.912 528.311 332.957C521.571 332.002 512.174 330.341 512.174 330.341C512.174 330.341 488.417 332.127 480.207 329.153C471.998 326.18 456.45 326.171 456.45 326.171C456.45 326.171 432.983 326.77 425.363 325.877C417.743 324.984 413.625 335.403 408.645 332.421C403.664 329.439 414.505 300.583 418.024 292.245C421.544 283.906 413.334 262.782 413.334 262.782L423.893 203.347L426.243 189.875V147.52L426.823 147.314C428.965 146.467 430.877 145.114 432.402 143.368L435.042 185.991L517.752 188.973V141.002" fill="black"/>
<path d="M520.964 140.69L523.912 186.303L527.071 201.481L529.482 213.088C529.482 213.088 535.641 302.369 533.881 306.833C532.121 311.297 534.761 314.868 535.131 317.243C535.5 319.618 534.761 325.582 535.051 328.261C535.342 330.939 535.051 332.126 528.311 331.171C521.571 330.216 512.174 328.555 512.174 328.555C512.174 328.555 488.417 330.341 480.207 327.368C471.998 324.395 456.45 324.386 456.45 324.386C456.45 324.386 432.983 324.984 425.363 324.091C417.743 323.198 413.625 333.617 408.645 330.635C403.664 327.654 414.505 298.798 418.024 290.459C421.544 282.12 413.334 260.996 413.334 260.996L423.893 201.562L426.243 188.089V145.734L426.823 145.529C428.965 144.681 430.877 143.328 432.402 141.582L435.042 184.205L517.752 187.187V139.216" fill="#E7C7CA"/>
<path opacity="0.1" d="M530.476 45.4977C529.974 43.6318 529.279 41.6944 527.836 40.4444C526.458 39.4405 524.867 38.7798 523.19 38.5159C519.177 37.4451 515.097 36.6517 510.977 36.1411C510.389 34.1586 509.498 32.2818 508.338 30.5788C499.715 18.2223 486.956 6.5711 471.945 3.9373C464.087 2.55344 454.98 3.79445 449.947 10.0799C447.184 13.535 445.996 18.1152 443.207 21.5079C437.831 28.0968 428.126 28.9093 421.35 34.0072C417.734 36.6857 415.112 40.5694 412.551 44.3371C409.78 48.4173 406.929 52.667 406.049 57.5418C404.289 67.2824 410.633 76.5676 411.803 86.3975C414.443 108.388 391.214 127.895 395.604 149.591C398.165 162.242 409.683 171.152 421.597 175.67C425.794 177.268 430.589 178.857 432.552 182.946C433.431 184.732 433.581 186.794 434.408 188.598C437.189 194.615 446.331 194.848 451.241 190.464C456.151 186.08 457.699 178.991 458.28 172.375C460.638 143.484 449.235 114.941 450.563 85.9779C450.959 77.2194 453.388 67.2824 461.122 63.3183C471.531 57.9614 484.052 66.8896 495.509 65.1843C500.93 78.5688 502.081 93.3407 498.799 107.423C496.978 115.128 493.828 122.601 493.599 130.547C493.256 142.645 499.688 153.698 505.249 164.394C506.442 166.394 507.24 168.611 507.599 170.92C507.686 173.264 507.256 175.597 506.34 177.75C503.199 186.33 497.779 194.294 497.163 203.427C496.982 204.494 497.219 205.589 497.823 206.481C498.443 207.076 499.243 207.441 500.093 207.517C509.596 209.168 517.814 200.624 522.451 192.044C527.621 182.568 530.634 172.037 531.268 161.224C532.227 143.047 525.804 125.163 526.2 106.968C526.657 86.2814 535.87 65.4521 530.476 45.4977Z" fill="black"/>
<path d="M531.356 44.605C530.854 42.739 530.159 40.8016 528.716 39.5516C527.338 38.5477 525.747 37.887 524.07 37.6232C520.057 36.5523 515.976 35.7589 511.857 35.2483C511.269 33.2658 510.378 31.389 509.217 29.6861C500.594 17.3295 487.836 5.6783 472.825 3.04451C464.967 1.66065 455.86 2.90165 450.827 9.18706C448.064 12.6422 446.876 17.2224 444.087 20.6151C438.711 27.204 429.006 28.0165 422.23 33.1145C418.614 35.7929 415.992 39.6766 413.431 43.4443C410.66 47.5245 407.809 51.7743 406.929 56.649C405.169 66.3896 411.513 75.6749 412.683 85.5047C415.323 107.495 392.094 127.003 396.484 148.698C399.045 161.349 410.563 170.259 422.477 174.777C426.674 176.375 431.469 177.964 433.431 182.054C434.311 183.839 434.461 185.902 435.288 187.705C438.069 193.723 447.211 193.955 452.121 189.571C457.03 185.187 458.579 178.098 459.16 171.483C461.518 142.591 450.114 114.048 451.443 85.0851C451.839 76.3266 454.268 66.3896 462.002 62.4255C472.411 57.0686 484.932 65.9968 496.388 64.2915C501.81 77.676 502.961 92.4479 499.679 106.53C497.858 114.235 494.708 121.708 494.479 129.654C494.136 141.752 500.568 152.805 506.129 163.501C507.322 165.501 508.12 167.718 508.478 170.027C508.566 172.371 508.136 174.704 507.22 176.857C504.079 185.437 498.659 193.401 498.043 202.535C497.862 203.601 498.099 204.696 498.703 205.588C499.323 206.183 500.123 206.548 500.973 206.624C510.476 208.275 518.694 199.731 523.331 191.151C528.501 181.675 531.514 171.144 532.148 160.331C533.107 142.154 526.684 124.271 527.079 106.075C527.537 85.3887 536.75 64.5593 531.356 44.605Z" fill="#3E373A"/>
<path d="M511.919 439.916L546.825 441.05L541.818 414.783L515.078 417.363L511.919 439.916Z" fill="#C3C7D9"/>
<path d="M620.076 377.66C617.727 380.633 608.638 385.99 607.758 387.776C606.878 389.561 596.029 394.918 590.45 395.811C584.872 396.704 567.282 400.579 564.053 402.659C561.739 404.159 543.164 408.908 530.96 411.542C527.654 412.336 524.309 412.947 520.938 413.373C515.658 413.667 457.884 393.731 457.884 393.731L469.023 382.124L469.639 381.91C472.789 380.829 487.343 375.839 495.421 373.464C504.519 370.785 515.078 359.777 515.078 359.777C515.078 359.777 530.617 354.42 532.676 353.822C534.735 353.224 527.396 332.993 527.396 332.993C527.396 332.993 561.123 328.243 574.321 324.216C587.52 320.19 618.026 321.681 623.596 337.457C629.166 353.233 622.461 374.687 620.076 377.66Z" fill="#4B4B5B"/>
<path d="M466.384 427.952C466.384 427.952 459.644 435.095 452.895 434.505C446.146 433.916 422.547 436.291 422.547 436.291C418.27 438.022 414.266 440.377 410.66 443.282C405.143 447.692 402.212 444.175 401.667 443.425L401.57 443.282C398.631 452.665 391.891 445.514 391.891 445.514C391.891 445.514 394.821 416.944 393.924 413.373C393.026 409.801 399.722 403.668 399.722 403.668L407.641 401.623L427.703 396.409L456.45 406.525L466.384 427.952Z" fill="#E7C7CA"/>
<path opacity="0.1" d="M407.606 401.623L401.667 443.425L401.57 443.282C398.631 452.665 391.891 445.514 391.891 445.514C391.891 445.514 394.821 416.944 393.924 413.373C393.026 409.801 399.722 403.668 399.722 403.668L407.606 401.623Z" fill="black"/>
<path opacity="0.1" d="M449.12 282.718C449.12 282.718 464.659 288.075 478.157 282.718H449.12Z" fill="black"/>
<path opacity="0.1" d="M502.169 292.843C502.169 292.843 508.619 296.11 513.608 292.843H502.169Z" fill="black"/>
<path opacity="0.1" d="M502.169 300.592C502.169 300.592 513.019 302.066 515.078 299.092L502.169 300.592Z" fill="black"/>
<path opacity="0.1" d="M498.65 317.243C498.65 317.243 519.028 314.565 524.088 310.994L498.65 317.243Z" fill="black"/>
<path opacity="0.1" d="M436.467 310.994C436.467 310.994 447.906 317.538 456.414 317.243L436.467 310.994Z" fill="black"/>
<path opacity="0.1" d="M530.951 411.542C527.645 412.336 524.3 412.947 520.929 413.373C515.65 413.667 457.875 393.731 457.875 393.731L469.015 382.124L469.631 381.91C471.39 383.169 472.833 384.249 473.863 385.07C478.711 388.945 483.392 383.883 485.152 383.883C486.912 383.883 502.161 396.677 502.161 396.677C502.161 396.677 516.239 399.954 518.588 402.927C520.938 405.9 529.147 405.31 530.608 407.391C531.048 408.034 531.101 409.614 530.951 411.542Z" fill="black"/>
<path d="M422.547 334.207C422.547 334.207 408.31 335.037 400.101 331.528C391.891 328.02 364.614 319.922 356.695 325.609C348.776 331.296 329.708 336.323 338.507 358.947C347.307 381.571 351.416 382.16 351.416 382.16C354.138 384.231 356.515 386.733 358.455 389.57C361.095 393.74 385.732 403.257 391.891 403.257C398.051 403.257 408.9 403.257 424.148 413.971C439.397 424.684 453.185 425.881 453.185 425.881C453.185 425.881 472.543 433.916 478.57 435.702C484.598 437.487 512.139 445.219 518.597 442.844C525.056 440.469 529.156 425.577 529.156 425.577C529.156 425.577 532.086 412.185 530.617 410.105C529.147 408.025 520.938 408.614 518.597 405.641C516.257 402.668 502.169 399.391 502.169 399.391C502.169 399.391 486.956 386.588 485.196 386.588C483.436 386.588 478.755 391.641 473.907 387.776C464.249 380.517 454.103 373.954 443.541 368.134C432.402 362.179 422.547 334.207 422.547 334.207Z" fill="#4B4B5B"/>
<path opacity="0.1" d="M393.924 342.84C396.459 342.315 399.079 342.39 401.58 343.061C404.082 343.731 406.397 344.979 408.345 346.706C415.385 352.661 439.072 364.616 439.072 364.616" fill="black"/>
<path opacity="0.1" d="M569.922 342.465C569.922 342.465 538.536 347.286 532.676 353.831L569.922 342.465Z" fill="black"/>
<path d="M605.998 441.05H604.617C599.654 440.871 582.839 440.335 579.601 441.05C575.791 441.943 525.337 441.05 525.337 441.05L535.201 438.97C535.201 438.97 531.541 425.952 533.863 424.872C533.863 424.872 520.665 416.051 530.617 410.096C540.568 404.141 551.294 406.65 551.294 406.65L576.275 398.061L581.07 396.409C581.07 396.409 609.227 397.9 616.847 417.542C624.467 437.184 605.998 441.05 605.998 441.05Z" fill="#E7C7CA"/>
<path opacity="0.1" d="M605.998 441.05H604.617C612.808 434.193 631.339 413.319 576.275 398.105L581.07 396.454C581.07 396.454 609.227 397.945 616.847 417.587C624.467 437.229 605.998 441.05 605.998 441.05Z" fill="black"/>
<path d="M554.233 417.908C555.084 417.908 555.773 417.208 555.773 416.346C555.773 415.483 555.084 414.783 554.233 414.783C553.383 414.783 552.693 415.483 552.693 416.346C552.693 417.208 553.383 417.908 554.233 417.908Z" fill="#4B4B5B"/>
<path d="M545.285 420.488C546.135 420.488 546.825 419.789 546.825 418.926C546.825 418.063 546.135 417.363 545.285 417.363C544.434 417.363 543.745 418.063 543.745 418.926C543.745 419.789 544.434 420.488 545.285 420.488Z" fill="#4B4B5B"/>
<g opacity="0.1">
<path opacity="0.1" d="M501.685 88.7546C502.027 78.9343 500.305 69.1528 496.635 60.0595C485.196 61.7916 472.666 52.8367 462.248 58.1936C454.54 62.1576 452.121 72.0947 451.689 80.8532C451.584 83.1655 451.566 85.4779 451.61 87.7903C451.61 86.9689 451.61 86.1386 451.689 85.3172C452.094 76.5587 454.514 66.6217 462.248 62.6576C472.666 57.3007 485.178 66.2289 496.635 64.5236C499.743 72.226 501.454 80.4348 501.685 88.7546Z" fill="black"/>
<path opacity="0.1" d="M413.044 87.1207C413.195 85.1753 413.156 83.2195 412.93 81.2817C411.997 73.425 407.765 65.9164 406.999 58.2561C406.014 67.4967 411.812 76.3712 412.93 85.7458C413.044 86.2279 413.044 86.6565 413.044 87.1207Z" fill="black"/>
<path opacity="0.1" d="M459.406 167.242C458.861 173.866 457.321 180.946 452.367 185.339C447.413 189.732 438.289 189.491 435.534 183.473C434.655 181.687 434.523 179.607 433.669 177.822C431.716 173.733 426.911 172.143 422.714 170.545C410.792 166.019 399.291 157.153 396.731 144.466C396.502 143.317 396.346 142.154 396.264 140.984C396.048 143.642 396.205 146.317 396.731 148.93C399.291 161.581 410.809 170.483 422.714 175.009C426.911 176.607 431.716 178.197 433.669 182.286C434.549 184.071 434.699 186.134 435.534 187.937C438.306 193.955 447.448 194.187 452.367 189.803C457.286 185.419 458.817 178.331 459.406 171.706C459.674 168.219 459.765 164.721 459.679 161.224C459.679 163.251 459.565 165.251 459.406 167.242Z" fill="black"/>
<path opacity="0.1" d="M527.37 101.843C527.37 103.138 527.37 104.423 527.37 105.709C527.863 89.1028 533.864 72.4071 533.274 56.149C532.816 71.184 527.704 86.5582 527.37 101.843Z" fill="black"/>
<path opacity="0.1" d="M508.487 169.018C508.704 167.959 508.772 166.874 508.69 165.795C508.335 163.485 507.537 161.267 506.34 159.269C501.254 149.448 495.456 139.395 494.769 128.494C494.769 128.958 494.708 129.386 494.699 129.886C494.347 141.975 500.779 153.037 506.34 163.733C507.285 165.39 508.007 167.167 508.487 169.018Z" fill="black"/>
<path opacity="0.1" d="M532.429 156.099C531.772 166.916 528.739 177.447 523.551 186.919C518.905 195.499 510.696 204.044 501.184 202.392C500.332 202.317 499.531 201.949 498.914 201.347C498.735 201.143 498.595 200.907 498.5 200.651C498.395 201.347 498.307 202.053 498.254 202.767C498.072 203.83 498.309 204.924 498.914 205.811C499.531 206.413 500.332 206.781 501.184 206.856C510.696 208.508 518.905 199.963 523.551 191.383C528.739 181.911 531.772 171.38 532.429 160.564C532.535 158.474 532.544 156.394 532.482 154.314C532.464 154.912 532.464 155.501 532.429 156.099Z" fill="black"/>
</g>
<path opacity="0.1" d="M533.864 424.872C533.864 424.872 556.134 434.354 570.819 413.373" stroke="black" stroke-miterlimit="10"/>
<path opacity="0.1" d="M538.245 441.443C538.245 441.443 556.433 429.443 579.601 441.05" stroke="black" stroke-miterlimit="10"/>
<path opacity="0.1" d="M416.502 438.72C416.502 438.72 424.14 421.238 444.536 434.568" stroke="black" stroke-miterlimit="10"/>
<path opacity="0.1" d="M391.742 180.196L407.316 165.911C407.316 165.911 467.704 161.894 470.203 182.723C470.203 182.723 491.611 158.028 536.635 163.528L555.685 178.92L503.032 202.365L451.865 220.373L414.179 203.258L391.742 180.196Z" fill="black"/>
<path d="M391.742 181.089L407.316 166.804C407.316 166.804 467.704 162.787 470.203 183.616C470.203 183.616 491.611 158.921 536.635 164.42L555.685 179.813L503.032 203.258L451.865 221.266L414.179 204.151L391.742 181.089Z" fill="#D5D6DB"/>
<path opacity="0.1" d="M384.852 182.875L391.742 266.505L464.774 270.228L461.606 186.955L461.544 185.553L384.852 182.875Z" fill="black"/>
<path d="M384.852 181.089L391.742 264.719L464.774 268.442L461.606 185.169L461.544 183.768L384.852 181.089Z" fill="#6C63FF"/>
<path opacity="0.1" d="M559.029 181.089L483.691 192.553V276.558L557.313 265.764L559.029 181.089Z" fill="black"/>
<path d="M559.029 179.304L483.691 190.767V274.772L557.313 263.978L559.029 179.304Z" fill="#6C63FF"/>
<path opacity="0.3" d="M541.264 199.803L500.568 204.392L501.457 218.462L541.237 214.052L541.264 199.803Z" fill="white"/>
<path d="M395.701 309.503L399.846 320.815C399.846 320.815 406.005 326.171 412.745 323.493C419.485 320.815 425.363 319.484 428.293 316.877C431.223 314.27 435.332 301.173 435.332 301.173C435.332 301.173 439.441 286.888 443.541 283.316C447.642 279.745 458.5 230.542 443.541 235.355C428.583 240.167 417.144 284.807 417.144 284.807C417.144 284.807 414.505 288.075 410.695 288.379C406.885 288.682 399.256 287.781 397.787 291.057C396.317 294.334 391.302 302.958 395.701 309.503Z" fill="#BE6F72"/>
<path opacity="0.1" d="M483.691 192.544C479.834 193.426 475.827 193.38 471.991 192.409C468.154 191.439 464.595 189.571 461.597 186.955L464.774 270.219C464.774 270.219 472.253 278.433 483.691 276.558V192.544Z" fill="black"/>
<path d="M483.691 190.758C479.834 191.64 475.827 191.594 471.991 190.624C468.154 189.653 464.595 187.785 461.597 185.169L464.774 268.433C464.774 268.433 472.253 276.647 483.691 274.772V190.758Z" fill="#6C63FF"/>
<path opacity="0.1" d="M483.691 190.758C479.834 191.64 475.827 191.594 471.991 190.624C468.154 189.653 464.595 187.785 461.597 185.169L464.774 268.433C464.774 268.433 472.253 276.647 483.691 274.772V190.758Z" fill="black"/>
<path opacity="0.1" d="M485.451 181.375C485.451 181.375 516.098 171.867 524.088 173.206L485.451 181.375Z" fill="black"/>
<path opacity="0.1" d="M451.17 177.223C451.17 177.223 421.465 170.081 416.502 172.108L451.17 177.223Z" fill="black"/>
<path opacity="0.1" d="M504.774 182.562C504.774 182.562 525.267 174.938 532.676 178.563L504.774 182.562Z" fill="black"/>
<path opacity="0.1" d="M494.453 373.83C497.628 371.41 501.008 369.28 504.554 367.464C509.833 364.884 519.512 358.188 519.512 358.188" fill="black"/>
<path opacity="0.1" d="M416.502 282.718C416.502 282.718 403.647 293.387 399.784 294.325C395.921 295.262 393.537 303.583 393.537 303.583" fill="black"/>
<path d="M551.47 307.913L547.37 319.252C547.37 319.252 541.211 324.609 534.462 321.931C527.713 319.252 521.853 317.922 518.914 315.315C515.975 312.708 511.875 299.61 511.875 299.61C511.875 299.61 507.774 285.325 503.665 281.754C499.556 278.183 488.707 228.98 503.665 233.792C518.624 238.604 530.062 283.245 530.062 283.245C530.062 283.245 532.702 286.513 536.512 286.816C540.322 287.12 547.951 286.218 549.42 289.495C550.89 292.771 555.87 301.396 551.47 307.913Z" fill="#BE6F72"/>
<path opacity="0.1" d="M544.282 287.057C544.282 287.057 552.685 292.539 552.649 299.092L544.282 287.057Z" fill="black"/>
<path d="M472.983 128.154C494.691 128.154 512.288 110.299 512.288 88.2724C512.288 66.2462 494.691 48.3905 472.983 48.3905C451.275 48.3905 433.678 66.2462 433.678 88.2724C433.678 110.299 451.275 128.154 472.983 128.154Z" fill="#BE6F72"/>
<path d="M448.302 77.5676C453.071 76.8087 457.25 73.9964 461.808 72.3804C472.006 68.7466 483.287 71.2376 493.608 74.5142C497.568 75.7731 501.589 77.1926 505.742 77.1926C509.895 77.1926 514.303 75.4695 516.424 71.8358C518.377 68.4966 517.999 64.1576 516.353 60.6488C514.708 57.1401 511.954 54.3188 509.173 51.6582C500.022 42.8908 488.672 34.6947 476.115 35.5875C471.065 35.9536 466.234 37.7839 461.588 39.8106C455.738 42.3685 450.044 45.2782 444.536 48.5244C440.303 51.0154 432.464 54.3456 430.026 58.8989C424.483 69.1573 439.679 78.9426 448.302 77.5676Z" fill="#3E373A"/>
<path opacity="0.1" d="M516.424 68.0859C514.303 71.7197 509.895 73.4428 505.742 73.4428C501.589 73.4428 497.568 72.0768 493.599 70.8179C483.278 67.5413 472.006 65.0414 461.8 68.6841C457.25 70.3001 453.062 73.1482 448.293 73.8624C441.342 74.9695 430.149 68.827 428.935 61.0149C427.571 70.0412 440.55 77.773 448.293 76.5409C453.062 75.782 457.25 72.9696 461.8 71.3626C472.006 67.7199 483.278 70.2198 493.599 73.4964C497.568 74.7553 501.58 76.1748 505.742 76.1213C509.904 76.0677 514.303 74.4071 516.424 70.7644C517.523 68.7827 517.956 66.4914 517.656 64.2379C517.519 65.5947 517.099 66.9063 516.424 68.0859Z" fill="black"/>
<path d="M835.397 551.946C835.397 551.946 840.615 558.865 832.987 569.32C825.358 579.775 819.075 588.596 821.609 595.114C821.609 595.114 833.119 575.704 842.481 575.427C851.843 575.15 845.684 563.615 835.397 551.946Z" fill="#6C63FF"/>
<path opacity="0.1" d="M835.398 551.946C835.852 552.614 836.21 553.345 836.462 554.116C845.596 565.008 850.47 575.177 841.68 575.427C833.497 575.668 823.686 590.516 821.337 594.257C821.412 594.559 821.503 594.857 821.609 595.149C821.609 595.149 833.119 575.74 842.481 575.463C851.843 575.186 845.684 563.615 835.398 551.946Z" fill="black"/>
<path d="M845.076 560.767C845.076 563.204 844.804 565.178 844.478 565.178C844.152 565.178 843.871 563.204 843.871 560.767C843.871 558.33 844.205 559.481 844.54 559.481C844.874 559.481 845.076 558.33 845.076 560.767Z" fill="#FFD037"/>
<path d="M848.411 563.678C846.308 564.838 844.469 565.544 844.311 565.249C844.153 564.954 845.728 563.767 847.831 562.571C849.933 561.374 849.106 562.249 849.265 562.571C849.423 562.892 850.523 562.508 848.411 563.678Z" fill="#FFD037"/>
<path d="M807.821 551.946C807.821 551.946 802.604 558.865 810.232 569.32C817.861 579.775 824.144 588.596 821.601 595.114C821.601 595.114 810.1 575.704 800.729 575.427C791.358 575.15 797.562 563.615 807.821 551.946Z" fill="#6C63FF"/>
<path opacity="0.1" d="M807.821 551.946C807.367 552.614 807.008 553.345 806.757 554.116C797.623 565.008 792.749 575.177 801.539 575.427C809.713 575.668 819.533 590.516 821.882 594.257C821.808 594.56 821.714 594.859 821.601 595.149C821.601 595.149 810.1 575.74 800.729 575.463C791.358 575.186 797.562 563.615 807.821 551.946Z" fill="black"/>
<path d="M798.125 560.767C798.125 563.204 798.389 565.178 798.723 565.178C799.057 565.178 799.33 563.204 799.33 560.767C799.33 558.33 798.987 559.481 798.662 559.481C798.336 559.481 798.125 558.33 798.125 560.767Z" fill="#FFD037"/>
<path d="M794.799 563.678C796.902 564.838 798.741 565.544 798.899 565.249C799.057 564.954 797.482 563.767 795.379 562.571C793.277 561.374 794.104 562.249 793.945 562.571C793.787 562.892 792.687 562.508 794.799 563.678Z" fill="#FFD037"/>
<path opacity="0.1" d="M821.609 648.075C851.739 648.075 876.163 644.274 876.163 639.585C876.163 634.895 851.739 631.094 821.609 631.094C791.48 631.094 767.055 634.895 767.055 639.585C767.055 644.274 791.48 648.075 821.609 648.075Z" fill="#6C63FF"/>
<path d="M849.687 585.784L849.423 587.944L849.054 590.998L848.904 592.274L848.535 595.328L848.376 596.605L848.015 599.649L843.836 634.38C843.466 637.478 838.477 639.897 832.45 639.897H810.76C804.733 639.897 799.753 637.478 799.374 634.38L795.195 599.649L794.825 596.605L794.676 595.328L794.306 592.274L794.148 590.998L793.787 587.944L793.523 585.784C793.32 583.998 796.013 582.552 799.427 582.552H843.792C847.197 582.552 849.898 584.025 849.687 585.784Z" fill="#65617D"/>
<path d="M849.423 587.944L849.062 590.998H794.156L793.787 587.944H849.423Z" fill="#9D9CB5"/>
<path d="M848.904 592.274L848.543 595.328H794.676L794.306 592.274H848.904Z" fill="#9D9CB5"/>
<path d="M848.385 596.605L848.015 599.658H795.195L794.834 596.605H848.385Z" fill="#9D9CB5"/>
</g>
<defs>
<linearGradient id="paint0_linear_4:8" x1="480.99" y1="448.121" x2="480.99" y2="-1.70736e-05" gradientUnits="userSpaceOnUse">
<stop stop-color="#808080" stop-opacity="0.25"/>
<stop offset="0.54" stop-color="#808080" stop-opacity="0.12"/>
<stop offset="1" stop-color="#808080" stop-opacity="0.1"/>
</linearGradient>
<clipPath id="clip0_4:8">
<rect width="900" height="726" fill="white"/>
</clipPath>
</defs>
</svg>
